<?xml version="1.0" encoding="UTF-8"?>
<svg version="1.1" xmlns="http://www.w3.org/2000/svg" width="350" height="92">
<path d="M0 0 C115.5 0 231 0 350 0 C350 30.36 350 60.72 350 92 C234.5 92 119 92 0 92 C0 61.64 0 31.28 0 0 Z " fill="#FEFDF8" transform="translate(0,0)"/>
<path d="M0 0 C7.11427272 -0.35309809 12.49830034 -0.01004614 19 3 C20 4 20 4 20.0625 7.5625 C20.041875 8.696875 20.02125 9.83125 20 11 C18.02 11.99 18.02 11.99 16 13 C16 13.66 16 14.32 16 15 C16.639375 15.309375 17.27875 15.61875 17.9375 15.9375 C20 17 20 17 21 18 C21.47094801 24.35779817 21.47094801 24.35779817 19.625 26.875 C14.49983213 30.42319314 8.00184163 29.0545622 2 29 C2.33 20.09 2.66 11.18 3 2 C2.01 2 1.02 2 0 2 C0 1.34 0 0.68 0 0 Z " fill="#FCE8E2" transform="translate(55,31)"/>
<path d="M0 0 C3.2770866 1.23413687 4.30160186 2.55880431 5.8359375 5.69140625 C6.50259995 10.3580434 6.40704534 14.32074744 4.5859375 18.69140625 C2.65180253 20.90184621 1.66949663 21.90430649 -1.1640625 22.69140625 C-5.13389248 22.62051643 -7.39655699 22.26211547 -10.6015625 19.87890625 C-13.04518004 14.89392647 -13.13823671 10.12430088 -12.1640625 4.69140625 C-9.48574493 -0.12761039 -5.10208352 -1.0849258 0 0 Z " fill="#FEF6F1" transform="translate(198.1640625,38.30859375)"/>
<path d="M0 0 C4.95 0 9.9 0 15 0 C11.65168967 6.89358009 8.03393162 13.48471525 4 20 C5.45880109 19.85892253 6.91703551 19.71197585 8.375 19.5625 C9.18710938 19.48128906 9.99921875 19.40007813 10.8359375 19.31640625 C13.04272805 19.10909886 13.04272805 19.10909886 15 18 C15 18.99 15 19.98 15 21 C9.72 21 4.44 21 -1 21 C2.63772042 14.31674621 6.295437 7.64642185 10 1 C7.03 1 4.06 1 1 1 C1 2.32 1 3.64 1 5 C0.34 4.67 -0.32 4.34 -1 4 C-0.67 2.68 -0.34 1.36 0 0 Z " fill="#EB3E38" transform="translate(130,39)"/>
<path d="M0 0 C1.65 0 3.3 0 5 0 C5 9.24 5 18.48 5 28 C3.35 28 1.7 28 0 28 C0 18.76 0 9.52 0 0 Z " fill="#E92A23" transform="translate(57,32)"/>
<path d="M0 0 C3.375 -0.125 3.375 -0.125 7 0 C9 2 9 2 9.265625 4.09375 C9.26046875 4.8878125 9.2553125 5.681875 9.25 6.5 C9.25515625 7.2940625 9.2603125 8.088125 9.265625 8.90625 C9 11 9 11 7 13 C3.375 13.125 3.375 13.125 0 13 C0 8.71 0 4.42 0 0 Z " fill="#FEFAF5" transform="translate(63,46)"/>
<path d="M0 0 C3.37462715 0.54723683 5.08235 1.0549 8 3 C8.1875 6.625 8.1875 6.625 8 10 C6.02 10.99 6.02 10.99 4 12 C4 12.66 4 13.32 4 14 C4.639375 14.309375 5.27875 14.61875 5.9375 14.9375 C8 16 8 16 9 17 C9.46422339 23.26701571 9.46422339 23.26701571 7.8125 25.875 C5.5774211 27.26229035 3.59094622 27.64987213 1 28 C1.48597656 27.5978125 1.97195312 27.195625 2.47265625 26.78125 C4.83857337 24.02202185 4.46795965 21.60192248 4.37109375 18.09765625 C4.16374481 15.78337652 4.16374481 15.78337652 2 13.9375 C1.34 13.628125 0.68 13.31875 0 13 C0.99 12.67 1.98 12.34 3 12 C3.08131463 10.56344146 3.13933559 9.1255517 3.1875 7.6875 C3.22230469 6.88699219 3.25710937 6.08648437 3.29296875 5.26171875 C2.93801608 2.52148416 2.10633718 1.70828921 0 0 Z " fill="#EB3C35" transform="translate(67,32)"/>
<path d="M0 0 C1.32 0 2.64 0 4 0 C2.62394084 4.76551013 0.53221934 8.7248553 -2.125 12.875 C-2.49753906 13.46796875 -2.87007812 14.0609375 -3.25390625 14.671875 C-4.16365 16.1181343 -5.08103798 17.55958046 -6 19 C-4.54207116 19.05399736 -3.08357288 19.09279177 -1.625 19.125 C-0.81289062 19.14820312 -0.00078125 19.17140625 0.8359375 19.1953125 C3.21342243 19.21370051 3.21342243 19.21370051 5 17 C5 18.32 5 19.64 5 21 C-0.28 21 -5.56 21 -11 21 C-9.69646 17.74115 -8.5363417 14.99957184 -6.8359375 12.01171875 C-6.43632813 11.30595703 -6.03671875 10.60019531 -5.625 9.87304688 C-5.2125 9.15181641 -4.8 8.43058594 -4.375 7.6875 C-3.95476562 6.94693359 -3.53453125 6.20636719 -3.1015625 5.44335938 C-2.07051505 3.62730989 -1.03563954 1.81343467 0 0 Z " fill="#EB3B34" transform="translate(119,39)"/>
<path d="M0 0 C1.65 0 3.3 0 5 0 C5.33 6.93 5.66 13.86 6 21 C3.36 21 0.72 21 -2 21 C-1.01 20.67 -0.02 20.34 1 20 C0.67 13.4 0.34 6.8 0 0 Z " fill="#EA332C" transform="translate(211,39)"/>
<path d="M0 0 C1.65 0 3.3 0 5 0 C5.33 6.93 5.66 13.86 6 21 C4.35 21 2.7 21 1 21 C0.67 14.07 0.34 7.14 0 0 Z " fill="#EA302A" transform="translate(96,39)"/>
<path d="M0 0 C0.66 0.33 1.32 0.66 2 1 C1.67 2.65 1.34 4.3 1 6 C1.63808594 6.34933594 2.27617187 6.69867188 2.93359375 7.05859375 C3.75988281 7.51363281 4.58617187 7.96867187 5.4375 8.4375 C6.26121094 8.88996094 7.08492188 9.34242187 7.93359375 9.80859375 C10 11 10 11 11 12 C11.47058824 17.41176471 11.47058824 17.41176471 9.5 19.875 C9.005 20.24625 8.51 20.6175 8 21 C7.34 20.67 6.68 20.34 6 20 C6.33 19.67 6.66 19.34 7 19 C7.75342517 16.67484501 7.75342517 16.67484501 7 14 C5.07907448 12.46413472 3.0988427 11.2981088 0.9453125 10.11328125 C-1 9 -1 9 -3 7 C-2.67028521 3.70285207 -2.3773161 2.3773161 0 0 Z " fill="#EA322B" transform="translate(273,39)"/>
<path d="M0 0 C1.65 0 3.3 0 5 0 C5.02505615 0.56509277 5.0501123 1.13018555 5.07592773 1.71240234 C5.19179956 4.26683742 5.31456537 6.8208955 5.4375 9.375 C5.47681641 10.26445313 5.51613281 11.15390625 5.55664062 12.0703125 C5.59853516 12.92109375 5.64042969 13.771875 5.68359375 14.6484375 C5.72025146 15.43395996 5.75690918 16.21948242 5.79467773 17.02880859 C5.890891 19.07523496 5.890891 19.07523496 7 21 C5.125 20.6875 5.125 20.6875 3 20 C1.0243438 17.03651571 0.73623141 16.31979627 0.5859375 12.98828125 C0.52792969 11.85229492 0.52792969 11.85229492 0.46875 10.69335938 C0.42234375 9.51483398 0.42234375 9.51483398 0.375 8.3125 C0.31699219 7.11657227 0.31699219 7.11657227 0.2578125 5.89648438 C0.16367506 3.93136525 0.08075368 1.9657146 0 0 Z " fill="#EA302A" transform="translate(83,39)"/>
<path d="M0 0 C2.63989617 0.36412361 3.77437295 0.75689095 5.61328125 2.73828125 C7.98877849 6.61268379 7.52701272 10.59873158 7 15 C5.75 18.0625 5.75 18.0625 4 20 C1.8125 20.8125 1.8125 20.8125 0 21 C0.32484375 20.48566406 0.6496875 19.97132812 0.984375 19.44140625 C2.33855377 16.18616881 2.26478915 13.45362106 2.25 9.9375 C2.25515625 8.70902344 2.2603125 7.48054688 2.265625 6.21484375 C2.24874264 2.84845333 2.24874264 2.84845333 0 0 Z " fill="#EC453E" transform="translate(197,39)"/>
<path d="M0 0 C1.65 0 3.3 0 5 0 C5.02505615 0.56509277 5.0501123 1.13018555 5.07592773 1.71240234 C5.19179956 4.26683742 5.31456537 6.8208955 5.4375 9.375 C5.47681641 10.26445313 5.51613281 11.15390625 5.55664062 12.0703125 C5.59853516 12.92109375 5.64042969 13.771875 5.68359375 14.6484375 C5.72025146 15.43395996 5.75690918 16.21948242 5.79467773 17.02880859 C5.890891 19.07523496 5.890891 19.07523496 7 21 C4.69 21 2.38 21 0 21 C0.33 20.34 0.66 19.68 1 19 C1.09825199 16.15647179 1.13900483 13.34297958 1.125 10.5 C1.12886719 9.71496094 1.13273438 8.92992187 1.13671875 8.12109375 C1.23807619 3.92729677 1.23807619 3.92729677 0 0 Z " fill="#E81E17" transform="translate(237,39)"/>
<path d="M0 0 C1.65 0 3.3 0 5 0 C5.02505615 0.56509277 5.0501123 1.13018555 5.07592773 1.71240234 C5.19179956 4.26683742 5.31456537 6.8208955 5.4375 9.375 C5.47681641 10.26445313 5.51613281 11.15390625 5.55664062 12.0703125 C5.59853516 12.92109375 5.64042969 13.771875 5.68359375 14.6484375 C5.72025146 15.43395996 5.75690918 16.21948242 5.79467773 17.02880859 C5.890891 19.07523496 5.890891 19.07523496 7 21 C4.69 21 2.38 21 0 21 C0.33 20.34 0.66 19.68 1 19 C1.09825199 16.15647179 1.13900483 13.34297958 1.125 10.5 C1.12886719 9.71496094 1.13273438 8.92992187 1.13671875 8.12109375 C1.23807619 3.92729677 1.23807619 3.92729677 0 0 Z " fill="#E8211A" transform="translate(167,39)"/>
<path d="M0 0 C-0.33 0.99 -0.66 1.98 -1 3 C-1.12070269 5.31019336 -1.175363 7.6241874 -1.1875 9.9375 C-1.20167969 11.16339844 -1.21585938 12.38929687 -1.23046875 13.65234375 C-1.01676797 16.75643812 -0.63998182 18.41362551 1 21 C-3.65922684 19.52866521 -3.65922684 19.52866521 -5.140625 17.23046875 C-6.68117074 13.2320523 -6.57121023 9.20927536 -6 5 C-3 0 -3 0 0 0 Z " fill="#EA352F" transform="translate(256,39)"/>
<path d="M0 0 C0.66 0.33 1.32 0.66 2 1 C1.67 1.33 1.34 1.66 1 2 C0.91368126 3.34267413 0.89293527 4.68974322 0.90234375 6.03515625 C0.90556641 6.84404297 0.90878906 7.65292969 0.91210938 8.48632812 C0.92048828 9.33646484 0.92886719 10.18660156 0.9375 11.0625 C0.94201172 11.91650391 0.94652344 12.77050781 0.95117188 13.65039062 C0.96299627 15.76695663 0.98093231 17.88348685 1 20 C1.66 20.33 2.32 20.66 3 21 C0.4071902 20.64237106 -0.77096316 20.23793147 -2.609375 18.328125 C-4.36314685 15.39203504 -4.43324495 13.40404267 -4.4375 10 C-4.45683594 8.96875 -4.47617188 7.9375 -4.49609375 6.875 C-3.89288827 3.37925803 -2.69275174 2.21818757 0 0 Z " fill="#EB3B34" transform="translate(190,39)"/>
<path d="M0 0 C0.33 0 0.66 0 1 0 C1.03758423 0.98395752 1.03758423 0.98395752 1.07592773 1.98779297 C1.1917326 4.95040183 1.31452886 7.91268031 1.4375 10.875 C1.47681641 11.90753906 1.51613281 12.94007812 1.55664062 14.00390625 C1.59853516 14.99003906 1.64042969 15.97617187 1.68359375 16.9921875 C1.72025146 17.90339355 1.75690918 18.81459961 1.79467773 19.75341797 C1.86577065 22.03483481 1.86577065 22.03483481 3 24 C-0.875 23.125 -0.875 23.125 -2 22 C-2.25035974 18.69483066 -2.18521952 15.37603959 -2.1875 12.0625 C-2.19974609 11.12986328 -2.21199219 10.19722656 -2.22460938 9.23632812 C-2.22654297 8.34494141 -2.22847656 7.45355469 -2.23046875 6.53515625 C-2.23663208 5.30357788 -2.23663208 5.30357788 -2.24291992 4.04711914 C-2 2 -2 2 0 0 Z " fill="#E81E17" transform="translate(155,36)"/>
<path d="M0 0 C3.875 0.875 3.875 0.875 5 2 C5.21144292 4.81630224 5.37628157 7.61717799 5.5 10.4375 C5.50937661 15.88504143 5.50937661 15.88504143 7 21 C5.35 21 3.7 21 2 21 C1.93941406 19.73542969 1.87882813 18.47085938 1.81640625 17.16796875 C1.73199096 15.50780129 1.64734345 13.84764563 1.5625 12.1875 C1.52318359 11.35412109 1.48386719 10.52074219 1.44335938 9.66210938 C1.40146484 8.85966797 1.35957031 8.05722656 1.31640625 7.23046875 C1.26141968 6.12288208 1.26141968 6.12288208 1.20532227 4.99291992 C1.05157859 2.792505 1.05157859 2.792505 0 0 Z " fill="#E8241E" transform="translate(223,39)"/>
<path d="M0 0 C4.95 0 9.9 0 15 0 C13.35 3.3 11.7 6.6 10 10 C9.01 10 8.02 10 7 10 C6.67 9.34 6.34 8.68 6 8 C6.77734375 6.2734375 6.77734375 6.2734375 7.9375 4.375 C8.618125 3.26125 9.29875 2.1475 10 1 C7.03 1 4.06 1 1 1 C1 2.32 1 3.64 1 5 C0.34 4.67 -0.32 4.34 -1 4 C-0.67 2.68 -0.34 1.36 0 0 Z " fill="#ED4D46" transform="translate(130,39)"/>
<path d="M0 0 C3.875 1.875 3.875 1.875 5 3 C5.46422339 9.26701571 5.46422339 9.26701571 3.8125 11.875 C1.5774211 13.26229035 -0.40905378 13.64987213 -3 14 C-2.50886719 13.62230469 -2.01773438 13.24460937 -1.51171875 12.85546875 C0.57897883 10.28936708 0.30262202 8.57429067 0.1875 5.3125 C0.16042969 4.31863281 0.13335937 3.32476562 0.10546875 2.30078125 C0.05326172 1.16189453 0.05326172 1.16189453 0 0 Z " fill="#E92E27" transform="translate(71,46)"/>
<path d="M0 0 C1.32 0 2.64 0 4 0 C2.75037104 4.4778371 1.25851406 7.64274309 -2 11 C-2.99 11 -3.98 11 -5 11 C-3.55049545 7.2089881 -1.84827434 3.6125362 0 0 Z " fill="#EA302A" transform="translate(119,39)"/>
<path d="M0 0 C1.39456452 0.00667256 2.78911118 0.01863093 4.18359375 0.03515625 C4.89451172 0.03966797 5.60542969 0.04417969 6.33789062 0.04882812 C8.09899388 0.06064761 9.86005411 0.07858362 11.62109375 0.09765625 C11.29109375 1.08765625 10.96109375 2.07765625 10.62109375 3.09765625 C10.62109375 2.43765625 10.62109375 1.77765625 10.62109375 1.09765625 C8.49409265 1.35229723 6.3694716 1.62688567 4.24609375 1.91015625 C2.47105469 2.13638672 2.47105469 2.13638672 0.66015625 2.3671875 C-2.67422709 2.80464959 -2.67422709 2.80464959 -4.37890625 6.09765625 C-4.42162725 4.4315372 -4.41954457 2.7638274 -4.37890625 1.09765625 C-3.37890625 0.09765625 -3.37890625 0.09765625 0 0 Z " fill="#F8B7B1" transform="translate(112.37890625,37.90234375)"/>
<path d="M0 0 C0.99 0 1.98 0 3 0 C3 3.3 3 6.6 3 10 C2.01 10.33 1.02 10.66 0 11 C0 7.37 0 3.74 0 0 Z " fill="#E92C26" transform="translate(201,44)"/>
<path d="M0 0 C2.31 0 4.62 0 7 0 C7.33 1.32 7.66 2.64 8 4 C6.68 4.33 5.36 4.66 4 5 C3.67 4.01 3.34 3.02 3 2 C2.01 1.34 1.02 0.68 0 0 Z " fill="#EA352E" transform="translate(174,39)"/>
<path d="M0 0 C2.475 0.99 2.475 0.99 5 2 C4.67 3.32 4.34 4.64 4 6 C3.01 6 2.02 6 1 6 C0.67 4.02 0.34 2.04 0 0 Z " fill="#EB3E38" transform="translate(261,39)"/>
<path d="M0 0 C0.99 0 1.98 0 3 0 C3 1.65 3 3.3 3 5 C1.68 5 0.36 5 -1 5 C-0.67 3.35 -0.34 1.7 0 0 Z " fill="#EA332C" transform="translate(291,55)"/>
<path d="M0 0 C0.66 0 1.32 0 2 0 C2.66 1.98 3.32 3.96 4 6 C2.68 5.67 1.36 5.34 0 5 C-0.5625 3.0625 -0.5625 3.0625 -1 1 C-0.67 0.67 -0.34 0.34 0 0 Z " fill="#EC4841" transform="translate(271,54)"/>
<path d="M0 0 C0.33 0.99 0.66 1.98 1 3 C-0.4375 5.1875 -0.4375 5.1875 -2 7 C-2.66 6.67 -3.32 6.34 -4 6 C-3.6875 4.125 -3.6875 4.125 -3 2 C-2.01 1.34 -1.02 0.68 0 0 Z " fill="#E9261F" transform="translate(138,47)"/>
</svg>
